<svg width="137" height="137" viewBox="0 0 137 137" fill="none" xmlns="http://www.w3.org/2000/svg">
<rect width="137" height="137" rx="68.5" fill="white"/>
<path d="M58.5048 91.9654C58.3052 92.803 58.0056 93.6136 57.6124 94.3799C56.7846 96.0933 56.3474 96.5762 56.3474 96.5762C56.3474 96.5762 56.136 86.5284 56.3474 83.7812L58.2897 84.629L58.5048 91.9654Z" fill="#FC5230"/>
<path d="M79.0496 64.7192V64.7514L77.6161 73.2396L77.4405 74.2805C76.0365 73.605 74.5364 73.1501 72.9931 72.932C70.6494 72.5743 65.3313 72.5743 62.9875 72.932C61.4468 73.1508 59.9491 73.6057 58.5474 74.2805L58.3753 73.2539L56.9419 64.7657V64.7335C56.8637 64.4275 56.8443 64.1095 56.8845 63.7963C56.9741 63.6211 57.2429 63.4601 57.6837 63.2526C59.1917 62.56 60.7689 62.0289 62.3891 61.668C66.0851 60.903 69.8991 60.903 73.5952 61.668C75.2149 62.0236 76.7923 62.55 78.3006 63.2383C78.7557 63.4458 79.0173 63.596 79.1033 63.782C79.1428 64.0951 79.1246 64.4127 79.0496 64.7192Z" fill="#FC5230"/>
<path d="M79.6478 96.5762C79.6478 96.5762 79.2106 96.0933 78.3828 94.3799C77.9896 93.6136 77.69 92.803 77.4905 91.9654L77.7091 84.629L79.6478 83.7812C79.8593 86.5284 79.6478 96.5762 79.6478 96.5762Z" fill="#FC5230"/>
<path d="M57.9527 74.8566L58.2752 83.631L56.4045 82.9693C56.4619 82.2539 56.5336 80.8767 56.5371 78.8378C56.5371 76.6916 56.2648 73.365 56.1788 70.947C56.1394 69.974 56.1214 69.0798 56.1143 68.2821C56.1143 66.8298 56.1143 65.7066 56.1501 65.0628C56.168 64.6693 56.1788 64.4547 56.1788 64.4547L57.9527 74.8566Z" fill="#FC5230"/>
<path d="M79.86 65.138C79.8851 65.7997 79.9102 66.9265 79.8958 68.3573C79.8958 69.1371 79.8672 70.0099 79.8313 70.9506C79.731 73.3687 79.455 76.6989 79.4729 78.8415C79.4729 80.8804 79.5374 82.2826 79.6091 82.9729L77.7349 83.6347L78.0574 74.8603L79.8492 64.4619C79.8492 64.4619 79.8456 64.698 79.86 65.138Z" fill="#FC5230"/>
<path d="M99.9316 100.035C98.5152 101.178 96.8217 101.929 95.022 102.21C89.4601 102.972 85.106 98.3826 84.4143 97.6314C82.4375 92.2314 81.5934 86.4835 81.9344 80.7443C81.9179 80.7478 81.9008 80.7478 81.8842 80.7443V77.6824H81.9129C81.9129 75.8438 82.0634 71.9199 82.0742 67.5738L83.4754 67.9315C83.5112 67.8625 83.5377 67.7892 83.5542 67.7133C83.5809 67.6241 83.5877 67.5302 83.5741 67.4381C83.5605 67.346 83.5268 67.258 83.4754 67.1803C83.35 67.0015 82.6798 66.7225 82.0778 66.5007C82.1048 63.0077 81.9541 59.5157 81.6262 56.038C81.3144 53.2157 80.8163 51.7455 79.9276 50.583C79.7379 50.6253 79.5411 50.6251 79.3515 50.5824C79.1619 50.5398 78.9841 50.4557 78.831 50.3362L75.6272 48.2973C75.4621 48.1667 75.3247 48.0045 75.2232 47.8202C75.1216 47.636 75.058 47.4333 75.0359 47.2242C74.8853 47.167 74.7276 47.1133 74.57 47.0632C70.8214 45.8435 65.1736 45.8435 61.4251 47.0632C61.2674 47.1133 61.1097 47.167 60.9592 47.2242C60.9385 47.4337 60.8754 47.6368 60.7738 47.8213C60.6721 48.0057 60.534 48.1677 60.3679 48.2973L57.1641 50.3362C57.0109 50.4557 56.8331 50.5398 56.6435 50.5824C56.4539 50.6251 56.2572 50.6253 56.0675 50.583C55.1787 51.7563 54.6806 53.2157 54.3688 56.038C54.0416 59.4954 53.8921 62.9672 53.9209 66.4399C53.3152 66.6617 52.6343 66.9478 52.5089 67.1267C52.4539 67.2116 52.4192 67.3081 52.4074 67.4085C52.3956 67.509 52.407 67.6108 52.4408 67.7061C52.4568 67.7658 52.4796 67.8234 52.5089 67.8778L53.9244 67.5201C53.9244 71.8984 54.075 75.8546 54.0821 77.7003H54.1144V80.7622H54.0606C54.2515 82.3926 54.2515 84.0395 54.0606 85.6699C53.3761 91.5219 50.373 95.6533 48.6851 97.6493C44.4994 102.614 38.2351 103.065 35.4076 100.436C33.1821 98.3611 33.0137 94.3048 34.1605 91.5433C34.9346 89.6797 36.0419 89.0394 37.6976 87.2509C40.0449 84.7112 41.0806 82.472 43.1447 77.9972C45.6533 72.5673 48.2658 61.6682 47.7319 47.6642C43.7104 47.5637 39.7675 48.7868 36.5114 51.1446C33.9133 53.0704 31.8811 55.6572 30.627 58.6349H29C29.3584 56.5352 32.6303 38.1493 44.7467 34.5938C46.1003 34.1978 47.5039 33.9978 48.9145 34H100.483V47.4531H88.2345C88.4675 55.158 88.8473 64.0004 89.4888 74.2091C89.4888 74.2091 90.1769 85.1619 94.9252 89.2326C95.7767 89.9962 96.8501 90.4687 97.9893 90.5811C98.7477 90.5691 99.4932 90.383 100.168 90.0374C102.189 89.0072 103.949 84.6719 104.576 78.8342H106.966C107.052 80.8481 107.479 94.3548 99.9316 100.035Z" fill="#FC5230"/>
<path d="M63.3139 86.4426C63.3123 86.4619 63.3034 86.4799 63.2888 86.4927C63.2827 86.5002 63.2751 86.5063 63.2665 86.5106C63.2578 86.5149 63.2483 86.5174 63.2387 86.5178H62.676C62.6571 86.5149 62.6396 86.5061 62.626 86.4926C62.6125 86.479 62.6036 86.4615 62.6008 86.4426V83.3521H61.11C61.0902 83.3506 61.0715 83.3423 61.0571 83.3286C61.0427 83.3149 61.0336 83.2967 61.0311 83.277V82.7726C61.0315 82.763 61.0339 82.7535 61.0383 82.7449C61.0426 82.7363 61.0487 82.7286 61.0562 82.7225C61.0627 82.7146 61.0709 82.7082 61.0802 82.7039C61.0895 82.6995 61.0997 82.6974 61.11 82.6975H64.8047C64.8149 82.6978 64.8249 82.7002 64.8342 82.7045C64.8434 82.7088 64.8517 82.7149 64.8585 82.7225C64.8725 82.7358 64.8813 82.7535 64.8836 82.7726V83.277C64.8812 83.2967 64.872 83.3149 64.8576 83.3286C64.8432 83.3423 64.8245 83.3506 64.8047 83.3521H63.3139V86.4426Z" fill="#FC5230"/>
<path d="M65.7075 86.4174C65.7015 86.4397 65.693 86.4613 65.6824 86.4818C65.6824 86.5068 65.6394 86.5211 65.5856 86.5211H65.0194C64.9907 86.5211 64.9692 86.5212 64.962 86.4961C64.9549 86.4711 64.962 86.4603 64.962 86.4174L65.711 82.8046C65.7174 82.7819 65.727 82.7602 65.7397 82.7403C65.7504 82.726 65.7646 82.7149 65.781 82.708C65.7973 82.7011 65.8152 82.6986 65.8329 82.7009H67.8362C67.8538 82.699 67.8716 82.7016 67.8879 82.7085C67.9042 82.7154 67.9184 82.7263 67.9293 82.7403C67.9411 82.7602 67.9496 82.782 67.9544 82.8046L68.7034 86.4174C68.7034 86.4603 68.7034 86.4854 68.7034 86.4961C68.6976 86.5048 68.6895 86.5117 68.68 86.5161C68.6705 86.5205 68.66 86.5222 68.6497 86.5211H68.0798C68.0297 86.5211 67.9974 86.5211 67.9867 86.4818C67.976 86.4613 67.9676 86.4397 67.9616 86.4174L67.8577 85.8737H65.8114L65.7075 86.4174ZM66.2916 83.3555L65.9332 85.2191H67.7251L67.3667 83.3555H66.2916Z" fill="#FC5230"/>
<path d="M71.4344 84.5896L72.9539 86.4461C72.9597 86.4531 72.9629 86.462 72.9629 86.4711C72.9629 86.4803 72.9597 86.4891 72.9539 86.4962C72.9539 86.514 72.9288 86.5212 72.9037 86.5212H72.187C72.1444 86.5246 72.1018 86.5146 72.0652 86.4926C72.0388 86.4727 72.0147 86.4499 71.9935 86.4246L70.9901 85.0975L69.958 86.4425C69.9377 86.4686 69.9135 86.4916 69.8863 86.5105C69.8499 86.533 69.8071 86.543 69.7644 86.5391H69.0943C69.0839 86.5406 69.0732 86.5391 69.0637 86.5346C69.0541 86.5302 69.0461 86.523 69.0405 86.514C69.0353 86.5067 69.0325 86.498 69.0325 86.489C69.0325 86.48 69.0353 86.4712 69.0405 86.464L70.5636 84.6075L69.08 82.7939C69.0741 82.7869 69.071 82.778 69.071 82.7689C69.071 82.7598 69.0741 82.7509 69.08 82.7439C69.08 82.726 69.105 82.7188 69.1301 82.7188H69.8469C69.8893 82.7173 69.9314 82.7271 69.9687 82.7474C69.9959 82.7678 70.02 82.7919 70.0404 82.819L71.0295 84.0852L72.0186 82.819C72.0378 82.7909 72.0621 82.7666 72.0903 82.7474C72.1262 82.7271 72.1672 82.7172 72.2085 82.7188H72.8822C72.8926 82.7177 72.9031 82.7194 72.9126 82.7239C72.9221 82.7283 72.9302 82.7352 72.936 82.7439C72.9408 82.7513 72.9433 82.76 72.9433 82.7689C72.9433 82.7778 72.9408 82.7865 72.936 82.7939L71.4344 84.5896Z" fill="#FC5230"/>
<path d="M74.1832 86.4425C74.1803 86.4614 74.1715 86.4789 74.1579 86.4924C74.1444 86.5059 74.1269 86.5148 74.1079 86.5176H73.5345C73.5147 86.5161 73.496 86.5078 73.4817 86.4941C73.4673 86.4804 73.4581 86.4622 73.4557 86.4425V82.7761C73.4579 82.757 73.4668 82.7392 73.4808 82.726C73.4876 82.7184 73.4958 82.7122 73.5051 82.7079C73.5143 82.7036 73.5243 82.7013 73.5345 82.7009H74.1079C74.1177 82.7008 74.1273 82.703 74.1361 82.7074C74.1448 82.7117 74.1523 82.7181 74.1581 82.726C74.1656 82.7321 74.1717 82.7397 74.176 82.7483C74.1804 82.757 74.1828 82.7664 74.1832 82.7761V86.4425Z" fill="#FC5230"/>
</svg>
