<svg width="290" height="56" viewBox="0 0 290 56" fill="none" xmlns="http://www.w3.org/2000/svg">
<path d="M10.337 54.8284C10.3096 55.1157 10.184 55.3847 9.9815 55.5894C9.77898 55.7942 9.51206 55.9221 9.22625 55.9514H1.1177C0.831594 55.9211 0.564529 55.793 0.361098 55.5886C0.157666 55.3842 0.0302 55.1159 0 54.8284V1.11608C0.00724127 0.971676 0.0428697 0.830149 0.104829 0.699648C0.166789 0.569148 0.253782 0.452238 0.360928 0.355721C0.456834 0.248419 0.57329 0.161642 0.703297 0.100522C0.833304 0.0394006 0.97426 0.00522254 1.1177 0H37.5369C39.5929 0.0393289 41.6258 0.443112 43.5421 1.1928C45.5982 1.92958 47.4867 3.07283 49.0959 4.55506C49.7028 5.1173 50.2602 5.73111 50.7621 6.38965C51.4018 7.22803 51.9619 8.12485 52.4351 9.06831C53.0026 10.2137 53.4426 11.4184 53.7472 12.6607C54.4321 15.6443 54.4321 18.7454 53.7472 21.729C53.4382 22.9588 52.9983 24.1515 52.4351 25.2866C51.9619 26.2301 51.4018 27.1269 50.7621 27.9652C50.2584 28.6223 49.7011 29.2359 49.0959 29.7998C47.4863 31.2799 45.5978 32.4208 43.5421 33.1551C41.6269 33.9095 39.5936 34.3157 37.5369 34.3549H10.337V54.8284ZM35.7042 24.8332C36.7375 24.8815 37.77 24.7211 38.7406 24.3617C39.7112 24.0023 40.6002 23.451 41.3552 22.7405C42.7343 21.2552 43.5013 19.2995 43.5013 17.2682C43.5013 15.2368 42.7343 13.2811 41.3552 11.7958C40.6009 11.0843 39.7119 10.5323 38.7412 10.1729C37.7704 9.81336 36.7376 9.6536 35.7042 9.70307H10.337V24.8332H35.7042Z" fill="white"/>
<path d="M73.081 54.9746C73.0758 55.1104 73.0408 55.2434 72.9784 55.364C72.916 55.4846 72.8278 55.5899 72.7201 55.6722C72.5186 55.8743 72.2479 55.9915 71.9633 56H64.0908C63.8065 55.9902 63.5364 55.8731 63.3341 55.6722C63.227 55.5899 63.1395 55.4845 63.0782 55.3637C63.017 55.243 62.9834 55.1101 62.98 54.9746V16.6087C62.9844 16.4734 63.0184 16.3407 63.0796 16.2202C63.1408 16.0996 63.2277 15.9941 63.3341 15.9111C63.537 15.7121 63.8073 15.5975 64.0908 15.5902H71.9633C72.2471 15.5961 72.5179 15.7109 72.7201 15.9111C72.8271 15.9941 72.9148 16.0994 72.9771 16.2199C73.0395 16.3403 73.0749 16.473 73.081 16.6087V54.9746Z" fill="white"/>
<path d="M131.918 54.8284C131.907 55.1181 131.782 55.3915 131.571 55.5888C131.477 55.696 131.364 55.7834 131.236 55.8457C131.108 55.908 130.97 55.944 130.828 55.9515H122.678C122.394 55.9192 122.131 55.7899 121.931 55.5854C121.731 55.381 121.608 55.1137 121.581 54.8284V9.6334H99.8724C99.5876 9.60434 99.3215 9.47741 99.1191 9.27406C98.9168 9.07071 98.7905 8.80338 98.7616 8.51727V1.16498C98.788 0.87791 98.9134 0.609154 99.1163 0.405302C99.3191 0.20145 99.5867 0.0753283 99.8724 0.0488572H153.633C153.918 0.0779112 154.184 0.204847 154.387 0.408197C154.589 0.611548 154.715 0.878873 154.744 1.16498V8.51727C154.715 8.80446 154.588 9.07261 154.384 9.2761C154.18 9.47959 153.912 9.60586 153.626 9.6334H131.918V54.8284Z" fill="white"/>
<path d="M166.756 54.4579C166.665 54.7746 166.546 55.0827 166.402 55.3787C166.215 55.7763 165.749 55.9786 165.014 55.9786H156.745C156.322 55.9786 156.051 55.8461 155.954 55.574C155.794 55.4136 155.794 55.0438 155.954 54.4579L166.846 1.56178C166.924 1.22321 167.058 0.900174 167.242 0.606119C167.4 0.393421 167.613 0.2287 167.858 0.130206C168.103 0.0317128 168.37 0.0032555 168.63 0.0480348H197.733C197.993 0.00484827 198.26 0.0340479 198.504 0.13242C198.749 0.230792 198.962 0.394617 199.121 0.606119C199.3 0.903123 199.433 1.22522 199.517 1.56178L210.409 54.4579C210.569 55.0438 210.569 55.4136 210.409 55.574C210.327 55.7084 210.21 55.8174 210.071 55.8889C209.931 55.9603 209.774 55.9914 209.618 55.9786H201.259C200.516 55.9786 200.058 55.7763 199.871 55.3787C199.725 55.0825 199.604 54.7745 199.51 54.4579L197.996 46.4569H168.256L166.756 54.4579ZM175.267 9.63258L170.095 36.8794H196.178L191.012 9.63258H175.267Z" fill="white"/>
<path d="M250.005 27.6927L272.109 54.8278C272.207 54.9253 272.271 55.0517 272.292 55.1885C272.314 55.3253 272.291 55.4654 272.227 55.5882C272.147 55.7138 272.034 55.8144 271.9 55.8785C271.767 55.9426 271.618 55.9677 271.47 55.9509H261.216C260.603 55.9851 259.993 55.8319 259.467 55.5114C259.064 55.2429 258.714 54.9025 258.433 54.5069L243.479 35.0938L228.539 54.5349C228.256 54.9288 227.906 55.2689 227.505 55.5394C226.979 55.8598 226.369 56.013 225.755 55.9788H215.974C215.826 55.9948 215.678 55.9694 215.544 55.9053C215.41 55.8412 215.297 55.7411 215.217 55.6161C215.147 55.4891 215.122 55.342 215.146 55.1988C215.17 55.0556 215.241 54.9249 215.349 54.8278L237.453 27.6648L215.932 1.1574C215.831 1.06179 215.765 0.935205 215.743 0.79755C215.722 0.659895 215.747 0.518969 215.814 0.39704C215.893 0.273291 216.006 0.174404 216.138 0.111526C216.271 0.0486483 216.418 0.02433 216.564 0.0413186H226.824C227.438 0.00713034 228.048 0.16033 228.574 0.480786C228.973 0.750719 229.323 1.08822 229.608 1.47829L244 20.0125L258.391 1.47829C258.676 1.08822 259.026 0.750719 259.425 0.480786C259.951 0.16033 260.561 0.00713034 261.175 0.0413186H270.887C271.034 0.023797 271.182 0.0478073 271.316 0.110675C271.45 0.173542 271.563 0.272724 271.644 0.39704C271.707 0.519841 271.73 0.659892 271.709 0.796699C271.688 0.933506 271.624 1.05991 271.526 1.1574L250.005 27.6927Z" fill="white"/>
<path d="M290 54.8284C289.995 54.9732 289.96 55.1154 289.898 55.2461C289.836 55.3769 289.748 55.4935 289.639 55.5887C289.545 55.6968 289.43 55.7846 289.301 55.8469C289.172 55.9092 289.032 55.9448 288.889 55.9514H280.559C280.273 55.9221 280.006 55.7942 279.803 55.5894C279.601 55.3847 279.475 55.1157 279.448 54.8284V1.11608C279.454 0.972103 279.488 0.830768 279.549 0.700244C279.61 0.569721 279.696 0.452589 279.802 0.355721C279.898 0.248419 280.014 0.161642 280.144 0.100522C280.274 0.0394006 280.415 0.00522254 280.559 0H288.889C289.174 0.029054 289.44 0.155947 289.642 0.359297C289.845 0.562648 289.971 0.829973 290 1.11608V54.8284Z" fill="white"/>
<path d="M72.0883 0.0488572H63.9727C63.4244 0.0488572 62.98 0.495497 62.98 1.04641V9.20091C62.98 9.75183 63.4244 10.1984 63.9727 10.1984H72.0883C72.6366 10.1984 73.081 9.75183 73.081 9.20091V1.04641C73.081 0.495497 72.6366 0.0488572 72.0883 0.0488572Z" fill="#FC5230"/>
</svg>
